<mxfile host="65bd71144e">
    <diagram name="PÃ¡gina-1" id="alawAmfqLsxjWG2pAmJv">
        <mxGraphModel dx="1671" dy="1124" grid="1" gridSize="10" guides="1" tooltips="1" connect="1" arrows="1" fold="1" page="1" pageScale="1" pageWidth="3300" pageHeight="4681" math="0" shadow="0">
            <root>
                <mxCell id="0"/>
                <mxCell id="1" parent="0"/>
                <mxCell id="wFBL7QBl2aDRxN-TSnFQ-1" value="&lt;b style=&quot;background-color: initial; font-size: 20px;&quot;&gt;TELA&lt;/b&gt;&lt;br&gt;&lt;b style=&quot;background-color: initial; font-size: 20px;&quot;&gt;ROOT&lt;/b&gt;" style="whiteSpace=wrap;html=1;aspect=fixed;" parent="1" vertex="1">
                    <mxGeometry x="80" y="200" width="310" height="310" as="geometry"/>
                </mxCell>
                <mxCell id="wFBL7QBl2aDRxN-TSnFQ-3" value="CARD 1" style="shape=card;whiteSpace=wrap;html=1;" parent="1" vertex="1">
                    <mxGeometry x="900" y="210" width="120" height="140" as="geometry"/>
                </mxCell>
                <mxCell id="wFBL7QBl2aDRxN-TSnFQ-15" style="edgeStyle=orthogonalEdgeStyle;rounded=0;orthogonalLoop=1;jettySize=auto;html=1;shape=flexArrow;fillColor=#d5e8d4;strokeColor=#82b366;entryX=1;entryY=0.5;entryDx=0;entryDy=0;entryPerimeter=0;" parent="1" source="wFBL7QBl2aDRxN-TSnFQ-4" target="wFBL7QBl2aDRxN-TSnFQ-12" edge="1">
                    <mxGeometry relative="1" as="geometry">
                        <mxPoint x="590" y="610" as="targetPoint"/>
                    </mxGeometry>
                </mxCell>
                <mxCell id="wFBL7QBl2aDRxN-TSnFQ-4" value="CARD 3" style="shape=card;whiteSpace=wrap;html=1;" parent="1" vertex="1">
                    <mxGeometry x="900" y="515" width="120" height="140" as="geometry"/>
                </mxCell>
                <mxCell id="wFBL7QBl2aDRxN-TSnFQ-8" style="edgeStyle=orthogonalEdgeStyle;rounded=0;orthogonalLoop=1;jettySize=auto;html=1;entryX=1;entryY=0.5;entryDx=0;entryDy=0;fillColor=#f8cecc;strokeColor=#b85450;" parent="1" source="wFBL7QBl2aDRxN-TSnFQ-5" target="wFBL7QBl2aDRxN-TSnFQ-1" edge="1">
                    <mxGeometry relative="1" as="geometry"/>
                </mxCell>
                <mxCell id="wFBL7QBl2aDRxN-TSnFQ-14" style="edgeStyle=orthogonalEdgeStyle;rounded=0;orthogonalLoop=1;jettySize=auto;html=1;shape=flexArrow;fillColor=#d5e8d4;strokeColor=#82b366;" parent="1" source="wFBL7QBl2aDRxN-TSnFQ-5" target="wFBL7QBl2aDRxN-TSnFQ-12" edge="1">
                    <mxGeometry relative="1" as="geometry"/>
                </mxCell>
                <mxCell id="wFBL7QBl2aDRxN-TSnFQ-5" value="CARD 2" style="shape=card;whiteSpace=wrap;html=1;" parent="1" vertex="1">
                    <mxGeometry x="900" y="365" width="120" height="140" as="geometry"/>
                </mxCell>
                <mxCell id="wFBL7QBl2aDRxN-TSnFQ-10" style="edgeStyle=orthogonalEdgeStyle;rounded=0;orthogonalLoop=1;jettySize=auto;html=1;entryX=1;entryY=0.75;entryDx=0;entryDy=0;fillColor=#f8cecc;strokeColor=#b85450;" parent="1" source="wFBL7QBl2aDRxN-TSnFQ-6" target="wFBL7QBl2aDRxN-TSnFQ-1" edge="1">
                    <mxGeometry relative="1" as="geometry"/>
                </mxCell>
                <mxCell id="wFBL7QBl2aDRxN-TSnFQ-6" value="CARD 4" style="shape=card;whiteSpace=wrap;html=1;" parent="1" vertex="1">
                    <mxGeometry x="900" y="665" width="120" height="140" as="geometry"/>
                </mxCell>
                <mxCell id="wFBL7QBl2aDRxN-TSnFQ-7" style="edgeStyle=orthogonalEdgeStyle;rounded=0;orthogonalLoop=1;jettySize=auto;html=1;entryX=0.997;entryY=0.468;entryDx=0;entryDy=0;entryPerimeter=0;fillColor=#f8cecc;strokeColor=#b85450;" parent="1" source="wFBL7QBl2aDRxN-TSnFQ-3" target="wFBL7QBl2aDRxN-TSnFQ-1" edge="1">
                    <mxGeometry relative="1" as="geometry"/>
                </mxCell>
                <mxCell id="wFBL7QBl2aDRxN-TSnFQ-9" style="edgeStyle=orthogonalEdgeStyle;rounded=0;orthogonalLoop=1;jettySize=auto;html=1;entryX=1;entryY=0.59;entryDx=0;entryDy=0;entryPerimeter=0;fillColor=#f8cecc;strokeColor=#b85450;" parent="1" source="wFBL7QBl2aDRxN-TSnFQ-4" target="wFBL7QBl2aDRxN-TSnFQ-1" edge="1">
                    <mxGeometry relative="1" as="geometry"/>
                </mxCell>
                <mxCell id="wFBL7QBl2aDRxN-TSnFQ-12" value="TEMPLATE&lt;br&gt;" style="shape=card;whiteSpace=wrap;html=1;" parent="1" vertex="1">
                    <mxGeometry x="460" y="540" width="120" height="140" as="geometry"/>
                </mxCell>
                <mxCell id="wFBL7QBl2aDRxN-TSnFQ-13" style="edgeStyle=orthogonalEdgeStyle;rounded=0;orthogonalLoop=1;jettySize=auto;html=1;entryX=0.683;entryY=-0.014;entryDx=0;entryDy=0;entryPerimeter=0;shape=flexArrow;fillColor=#d5e8d4;strokeColor=#82b366;" parent="1" source="wFBL7QBl2aDRxN-TSnFQ-3" target="wFBL7QBl2aDRxN-TSnFQ-12" edge="1">
                    <mxGeometry relative="1" as="geometry"/>
                </mxCell>
                <mxCell id="wFBL7QBl2aDRxN-TSnFQ-16" style="edgeStyle=orthogonalEdgeStyle;rounded=0;orthogonalLoop=1;jettySize=auto;html=1;entryX=0.583;entryY=1;entryDx=0;entryDy=0;entryPerimeter=0;shape=flexArrow;fillColor=#d5e8d4;strokeColor=#82b366;" parent="1" source="wFBL7QBl2aDRxN-TSnFQ-6" target="wFBL7QBl2aDRxN-TSnFQ-12" edge="1">
                    <mxGeometry relative="1" as="geometry"/>
                </mxCell>
                <mxCell id="wFBL7QBl2aDRxN-TSnFQ-17" style="edgeStyle=orthogonalEdgeStyle;rounded=0;orthogonalLoop=1;jettySize=auto;html=1;entryX=0.535;entryY=1.01;entryDx=0;entryDy=0;entryPerimeter=0;fillColor=#d5e8d4;strokeColor=#82b366;strokeWidth=5;" parent="1" source="wFBL7QBl2aDRxN-TSnFQ-12" target="wFBL7QBl2aDRxN-TSnFQ-1" edge="1">
                    <mxGeometry relative="1" as="geometry"/>
                </mxCell>
                <mxCell id="wFBL7QBl2aDRxN-TSnFQ-18" value="&lt;font style=&quot;font-size: 16px;&quot;&gt;&lt;b&gt;JSON&lt;/b&gt;&lt;/font&gt;" style="shape=datastore;whiteSpace=wrap;html=1;" parent="1" vertex="1">
                    <mxGeometry x="1560" y="420" width="110" height="180" as="geometry"/>
                </mxCell>
                <mxCell id="wFBL7QBl2aDRxN-TSnFQ-19" style="edgeStyle=orthogonalEdgeStyle;rounded=0;orthogonalLoop=1;jettySize=auto;html=1;entryX=1;entryY=0.5;entryDx=0;entryDy=0;entryPerimeter=0;shape=arrow;" parent="1" source="wFBL7QBl2aDRxN-TSnFQ-18" target="wFBL7QBl2aDRxN-TSnFQ-3" edge="1">
                    <mxGeometry relative="1" as="geometry"/>
                </mxCell>
                <mxCell id="wFBL7QBl2aDRxN-TSnFQ-20" style="edgeStyle=orthogonalEdgeStyle;rounded=0;orthogonalLoop=1;jettySize=auto;html=1;entryX=1;entryY=0.5;entryDx=0;entryDy=0;entryPerimeter=0;shape=arrow;" parent="1" source="wFBL7QBl2aDRxN-TSnFQ-18" target="wFBL7QBl2aDRxN-TSnFQ-5" edge="1">
                    <mxGeometry relative="1" as="geometry"/>
                </mxCell>
                <mxCell id="wFBL7QBl2aDRxN-TSnFQ-21" style="edgeStyle=orthogonalEdgeStyle;rounded=0;orthogonalLoop=1;jettySize=auto;html=1;entryX=1;entryY=0.5;entryDx=0;entryDy=0;entryPerimeter=0;shape=arrow;" parent="1" source="wFBL7QBl2aDRxN-TSnFQ-18" target="wFBL7QBl2aDRxN-TSnFQ-4" edge="1">
                    <mxGeometry relative="1" as="geometry"/>
                </mxCell>
                <mxCell id="wFBL7QBl2aDRxN-TSnFQ-22" style="edgeStyle=orthogonalEdgeStyle;rounded=0;orthogonalLoop=1;jettySize=auto;html=1;entryX=1;entryY=0.5;entryDx=0;entryDy=0;entryPerimeter=0;shape=arrow;" parent="1" source="wFBL7QBl2aDRxN-TSnFQ-18" target="wFBL7QBl2aDRxN-TSnFQ-6" edge="1">
                    <mxGeometry relative="1" as="geometry"/>
                </mxCell>
                <mxCell id="aP_X9wrIVc7Hie91GWsc-1" value="&lt;font style=&quot;font-size: 17px;&quot;&gt;Extras.py&lt;/font&gt;" style="shape=tape;whiteSpace=wrap;html=1;" parent="1" vertex="1">
                    <mxGeometry x="865" y="860" width="190" height="140" as="geometry"/>
                </mxCell>
                <mxCell id="aP_X9wrIVc7Hie91GWsc-2" style="edgeStyle=orthogonalEdgeStyle;rounded=0;orthogonalLoop=1;jettySize=auto;html=1;entryX=0.255;entryY=1.016;entryDx=0;entryDy=0;entryPerimeter=0;dashed=1;" parent="1" source="aP_X9wrIVc7Hie91GWsc-1" target="wFBL7QBl2aDRxN-TSnFQ-12" edge="1">
                    <mxGeometry relative="1" as="geometry"/>
                </mxCell>
                <mxCell id="aP_X9wrIVc7Hie91GWsc-3" style="edgeStyle=orthogonalEdgeStyle;rounded=0;orthogonalLoop=1;jettySize=auto;html=1;entryX=1;entryY=0.5;entryDx=0;entryDy=0;entryPerimeter=0;shape=arrow;" parent="1" source="wFBL7QBl2aDRxN-TSnFQ-18" target="aP_X9wrIVc7Hie91GWsc-1" edge="1">
                    <mxGeometry relative="1" as="geometry"/>
                </mxCell>
            </root>
        </mxGraphModel>
    </diagram>
</mxfile>